<svg width="261" height="148" viewBox="0 0 261 148" fill="none" xmlns="http://www.w3.org/2000/svg">
<path d="M200.533 22.2333L184.865 53.1502L225.266 119.732L167.342 69.7878L135.656 83.8331L151.323 52.9161L138.438 21.7999L168.846 36.2786L200.533 22.2333Z" fill="black"/>
<path d="M184.737 35.8242L177.093 52.1019L214.286 106.858L168.103 60.6377L151.452 67.4279L159.095 51.1503L151.418 34.0626L168.085 42.6144L184.737 35.8242Z" fill="#F9F9F9"/>
<g style="mix-blend-mode:luminosity">
<path d="M18.24 62.7963H10.272L8.832 68.7963H0L8.832 41.4363H20.112L28.56 68.7963H19.68L18.24 62.7963ZM14.208 47.3403L11.376 57.4683H17.088L14.4 47.3403H14.208ZM49.0909 68.1243C46.4989 68.9883 43.6029 69.4203 40.4029 69.4203C36.8189 69.4203 34.1309 68.5243 32.3389 66.7323C30.5789 64.9083 29.6989 62.0763 29.6989 58.2363C29.6989 56.3483 29.9549 54.4923 30.4669 52.6683C30.9789 50.8123 31.5229 49.5643 32.0989 48.9243C32.7709 48.1883 34.0829 47.5643 36.0349 47.0523C38.0189 46.5403 40.0669 46.2843 42.1789 46.2843C44.3869 46.2843 46.6109 46.4763 48.8509 46.8603C48.7869 47.6603 48.6749 48.6043 48.5149 49.6923C48.3869 50.7483 48.2429 51.6923 48.0829 52.5243C46.0989 52.3963 44.2269 52.3323 42.4669 52.3323C40.7389 52.3323 39.6349 52.4283 39.1549 52.6203C38.8989 52.7163 38.6589 53.3723 38.4349 54.5883C38.2429 55.8043 38.1469 56.9403 38.1469 57.9963C38.1469 59.4043 38.3389 60.4923 38.7229 61.2603C39.1389 61.9963 39.7789 62.5083 40.6429 62.7963C41.5069 63.0843 42.6749 63.2283 44.1469 63.2283C44.7869 63.2283 46.1949 63.1643 48.3709 63.0363L49.0909 68.1243ZM62.019 59.7243C62.019 60.3003 62.035 60.9083 62.067 61.5483C62.099 62.1563 62.195 62.5403 62.355 62.7003C62.579 62.9243 63.363 63.0363 64.707 63.0363L66.339 62.9883C66.627 64.5243 66.771 66.3003 66.771 68.3163C66.163 68.5403 65.267 68.7483 64.083 68.9403C62.931 69.1323 61.827 69.2283 60.771 69.2283C58.563 69.2283 56.851 68.7483 55.635 67.7883C54.451 66.7963 53.859 65.2763 53.859 63.2283V51.4203H50.259V47.0523L53.859 46.7163L56.019 41.4363L62.019 41.1003V46.7163H67.107V51.4203H62.019V59.7243ZM73.8338 43.9803C72.7458 43.9803 71.8018 43.6123 71.0018 42.8763C70.2338 42.1403 69.8498 41.2603 69.8498 40.2363C69.8498 39.2123 70.2338 38.3323 71.0018 37.5963C71.8018 36.8603 72.7458 36.4923 73.8338 36.4923C74.9218 36.4923 75.8498 36.8603 76.6178 37.5963C77.3858 38.3323 77.7698 39.2123 77.7698 40.2363C77.7698 41.2603 77.3858 42.1403 76.6178 42.8763C75.8498 43.6123 74.9218 43.9803 73.8338 43.9803ZM69.7058 46.7163H77.9138V68.7963H69.7058V46.7163ZM92.6396 69.4203C88.7996 69.4203 85.9196 68.5243 83.9996 66.7323C82.1116 64.9083 81.1676 62.0443 81.1676 58.1403C81.1676 55.9963 81.3596 54.1243 81.7436 52.5243C82.1596 50.8923 82.6556 49.7563 83.2316 49.1163C83.9676 48.2843 85.3116 47.5963 87.2636 47.0523C89.2476 46.5083 91.1036 46.2363 92.8316 46.2363C96.9596 46.2363 99.9036 47.1163 101.664 48.8763C103.424 50.6363 104.304 53.4523 104.304 57.3243C104.304 61.4843 103.36 64.5403 101.472 66.4923C99.5836 68.4443 96.6396 69.4203 92.6396 69.4203ZM92.7836 63.8043C94.0316 63.8043 94.8476 63.3723 95.2316 62.5083C95.6156 61.6123 95.8076 60.0443 95.8076 57.8043C95.8076 56.2363 95.7276 55.0363 95.5676 54.2043C95.4076 53.3403 95.1036 52.7163 94.6556 52.3323C94.2396 51.9163 93.5836 51.7083 92.6876 51.7083C91.4076 51.7083 90.6716 51.8203 90.4796 52.0443C90.2236 52.2683 90.0156 52.9723 89.8556 54.1563C89.6956 55.3403 89.6156 56.5723 89.6156 57.8523C89.6156 60.0283 89.8236 61.5643 90.2396 62.4603C90.6876 63.3563 91.5356 63.8043 92.7836 63.8043ZM128.797 48.1083C129.085 48.4603 129.293 49.3403 129.421 50.7483C129.581 52.1563 129.661 54.3003 129.661 57.1803V68.7963H121.453V57.2763V55.3083C121.453 54.2843 121.373 53.6443 121.213 53.3883C120.957 53.0683 120.365 52.9083 119.437 52.9083C118.989 52.9083 118.653 52.9243 118.429 52.9563C117.533 52.9883 116.605 53.1963 115.645 53.5803V68.7963H107.437V46.7163H114.109L115.021 50.4123C117.325 47.6283 120.077 46.2363 123.277 46.2363C124.429 46.2363 125.501 46.3963 126.493 46.7163C127.517 47.0363 128.285 47.5003 128.797 48.1083Z" fill="url(#paint0_linear_8_53)"/>
</g>
<defs>
<linearGradient id="paint0_linear_8_53" x1="24.5561" y1="51.7963" x2="108.592" y2="133.897" gradientUnits="userSpaceOnUse">
<stop offset="0.291" stop-color="#1F1C1C"/>
<stop offset="0.581" stop-color="#786B6B"/>
<stop offset="1" stop-color="#857676"/>
</linearGradient>
</defs>
</svg>
